PathFileType  4	(X/Y/Z) C:\Users\antoi\Documents\MyRepositories\mobilecap\ResultsAnalysis
DataRate	CameraRate	NumFrames	NumMarkers	Units	OrigDataRate	OrigDataStartFrame	OrigNumFrames
100.0	100.0	4	51	mm	100.0	18	141
Frame#	Time	r_knee			r_shank_antsup			r_ankle			r_calc			r_5meta			r_toe			L_knee			L_shank_antsup			L_ankle			L_calc			L_5meta			L_toe			r_sh2			r_sh3			r_sh4			L_sh2			L_sh3			r_thigh1			r_thigh2			r_thigh3			r_thigh4			r_thigh5			L_thigh1			L_thigh2			L_thigh3			L_thigh4			r.ASIS			r.PSIS			L.ASIS			L.PSIS			C7			R_Shoulder			L_Shoulder			R_Sternum			L_Sternum			R_humerus			R_elbow_med			R_elbow_lat			R_forearm			R_wrist_radius			R_wrist_ulna			L_humerus			L_elbow_med			L_elbow_lat			L_forearm			L_wrist_radius			L_wrist_ulna			R_HJC			L_HJC			R_HJC_reg			L_HJC_reg			
		X1	Y1	Z1	X2	Y2	Z2	X3	Y3	Z3	X4	Y4	Z4	X5	Y5	Z5	X6	Y6	Z6	X7	Y7	Z7	X8	Y8	Z8	X9	Y9	Z9	X10	Y10	Z10	X11	Y11	Z11	X12	Y12	Z12	X13	Y13	Z13	X14	Y14	Z14	X15	Y15	Z15	X16	Y16	Z16	X17	Y17	Z17	X18	Y18	Z18	X19	Y19	Z19	X20	Y20	Z20	X21	Y21	Z21	X22	Y22	Z22	X23	Y23	Z23	X24	Y24	Z24	X25	Y25	Z25	X26	Y26	Z26	X27	Y27	Z27	X28	Y28	Z28	X29	Y29	Z29	X30	Y30	Z30	X31	Y31	Z31	X32	Y32	Z32	X33	Y33	Z33	X34	Y34	Z34	X35	Y35	Z35	X36	Y36	Z36	X37	Y37	Z37	X38	Y38	Z38	X39	Y39	Z39	X40	Y40	Z40	X41	Y41	Z41	X42	Y42	Z42	X43	Y43	Z43	X44	Y44	Z44	X45	Y45	Z45	X46	Y46	Z46	X47	Y47	Z47	X48	Y48	Z48	X49	Y49	Z49	X50	Y50	Z50	X51	Y51	Z51	

18	0.17000000	97.39030	498.66557	-103.73759	144.22847	406.28427	-123.02333	78.97430	92.32000	-126.71319	13.57615	58.90104	-172.18372	197.45998	46.10640	-91.45592	229.15544	74.09471	-149.39967	-127.20310	449.52946	-358.63310	-162.39356	357.61613	-341.76684	-469.23153	225.04859	-318.39602	-526.82725	283.10018	-266.82676	-505.88524	99.96078	-337.68980	-455.99627	71.48914	-288.04928	143.56848	293.03621	-129.03844	90.75613	402.25751	-69.37967	84.48688	287.63799	-69.82210	-199.40283	430.21116	-379.46448	-303.29550	367.61728	-379.76124	54.44735	777.54640	-67.26674	94.74609	678.22786	-91.07253	64.34721	631.01543	-51.96781	-39.93615	729.04733	-26.57535	7.23795	625.93748	-55.88490	-18.68070	687.83262	-373.77364	-17.06692	549.88524	-352.02135	-123.23436	682.55919	-404.49482	-124.77475	552.71829	-371.93362	22.99782	944.68631	-96.00425	-190.41831	962.55677	-181.76279	17.02762	912.19135	-348.05553	-184.63387	955.88869	-278.46842	-161.45221	1413.90934	-198.65456	-107.40982	1351.54075	-31.85256	-60.52498	1404.38782	-346.13534	-36.72957	1339.59914	-169.59195	-30.60034	1348.41912	-214.07992	-79.40670	1216.52434	10.73530	-154.77056	1024.43817	-61.34948	-171.27354	1033.43514	3.29241	-136.57612	965.62689	44.78141	-85.28315	800.11801	40.29057	-134.80448	801.97298	55.14401	-18.29397	1271.32174	-415.23146	-87.39929	1068.17588	-392.99579	-60.67307	1085.18937	-466.99898	-1.83762	1035.47133	-473.23004	70.97529	873.77293	-451.63287	41.64046	872.69572	-493.19265	-63.74075	853.76546	-112.22475	-62.10580	831.36408	-300.46180	-54.64936	854.47060	-129.82490	-44.64310	842.94247	-296.91283	
19	0.18000000	103.19852	498.04392	-102.76343	148.68165	405.04982	-121.49207	79.08933	92.36536	-127.07901	13.64922	58.94072	-172.28428	197.44393	46.18660	-91.35508	229.18173	73.88801	-149.40163	-99.65226	449.47158	-360.44847	-134.83777	357.78474	-343.17001	-443.71441	231.24847	-319.80846	-500.46871	289.54568	-267.58470	-481.76250	106.91832	-340.47697	-432.39772	77.01249	-291.06319	146.44645	291.92940	-127.79108	93.93801	401.81771	-69.19333	85.72686	287.30133	-70.11569	-170.61806	430.93987	-380.78939	-275.57068	370.12008	-381.17416	65.26895	777.58169	-65.78992	104.09072	677.41702	-89.51860	72.11801	630.82508	-50.91112	-30.36151	730.68393	-26.06859	14.49856	627.22275	-55.00682	0.39398	690.90351	-374.11525	6.80458	552.89197	-353.35621	-104.09751	682.22652	-404.57013	-101.00141	552.18979	-373.24780	36.20274	946.58956	-95.92420	-177.19005	964.95945	-180.42335	29.42750	915.10147	-347.62095	-171.77070	957.63102	-277.21538	-148.10352	1416.58649	-198.64088	-92.92387	1355.17717	-31.87015	-48.25394	1406.64153	-346.71277	-23.18015	1342.53884	-169.97348	-17.29145	1351.11370	-214.50642	-64.45643	1220.23704	10.62675	-140.35296	1028.03383	-60.41338	-155.54022	1036.74328	4.49847	-119.96542	969.03412	45.35236	-67.36729	804.00935	40.09382	-116.72594	805.39189	55.50788	-6.15890	1273.24103	-415.23544	-75.55279	1070.26699	-392.03796	-49.07588	1087.01506	-466.17317	9.23449	1036.79992	-472.82066	80.29766	874.12300	-451.98347	50.81581	873.54646	-493.49409	-50.22602	855.74117	-111.76999	-49.32376	833.83209	-300.05983	-41.78252	857.95808	-128.98107	-32.43976	845.31869	-295.72562	
20	0.19000000	108.42199	497.53079	-101.69829	152.62467	403.97571	-119.80236	79.16800	92.39184	-127.40113	13.74039	59.02951	-172.38414	197.43789	46.25352	-91.26361	229.21730	73.71031	-149.39531	-72.28784	450.33648	-362.20595	-107.08337	358.75621	-344.56404	-417.18734	236.38209	-320.88771	-474.30838	293.79471	-267.91391	-454.25376	112.73815	-343.60670	-404.98214	82.14864	-294.33560	148.93955	291.00268	-126.36647	96.65850	401.53079	-68.82450	86.62227	287.11764	-70.17919	-142.03429	432.33075	-381.99127	-247.75325	372.81090	-382.32519	75.36025	777.58339	-64.04816	112.77499	676.60238	-87.81809	79.19558	630.65641	-49.78097	-21.60995	732.23641	-25.58335	21.23017	628.23548	-54.39232	19.18003	694.50560	-374.53160	30.30054	556.58993	-354.76022	-85.12528	682.48521	-404.74026	-77.44558	552.42726	-374.59414	49.09835	948.33765	-95.89680	-164.24607	967.48172	-178.88117	41.53483	918.10194	-347.51079	-159.25421	959.68015	-275.67504	-134.83844	1419.42085	-198.74113	-78.32189	1358.99772	-32.02442	-36.26755	1408.85960	-347.55549	-9.73185	1345.54344	-170.57956	-4.15502	1353.85511	-215.16460	-49.36216	1224.11540	10.35223	-126.06132	1031.73370	-59.23435	-139.66461	1040.24390	5.99191	-103.07976	972.64238	46.08364	-49.17513	808.16956	39.83851	-98.34288	809.01947	56.03131	5.60821	1275.10396	-415.54537	-63.82206	1072.18534	-391.19371	-37.61278	1088.72538	-465.43105	20.18515	1038.06906	-472.48267	89.58451	874.47296	-452.38583	59.97864	874.38632	-493.84718	-37.00215	857.63644	-111.42877	-37.03759	836.46961	-299.79795	-29.22129	861.21157	-128.34769	-20.63022	847.76837	-294.92929	
21	0.20000000	113.22235	497.12749	-100.65273	156.26182	403.06428	-118.24333	79.24368	92.41668	-127.68586	13.84018	59.16337	-172.47540	197.44665	46.30032	-91.18620	229.27232	73.53939	-149.39388	-45.09679	452.09597	-363.87249	-79.13706	360.49379	-345.94555	-389.70708	240.27000	-321.72085	-448.10680	295.95024	-267.91157	-424.00410	117.18812	-346.91112	-374.38272	86.54124	-297.79395	151.22476	290.23446	-125.05009	99.31847	401.36679	-68.33619	87.60068	287.05978	-70.03822	-113.69440	434.34151	-383.09044	-219.84829	375.58149	-383.23877	84.82881	777.59554	-62.09069	120.89453	675.81099	-86.10387	85.74147	630.52031	-48.66833	-13.46819	733.75394	-25.16891	27.56699	629.10272	-54.02209	37.68532	698.63718	-374.99299	53.39784	560.96965	-356.17983	-66.32296	683.36170	-404.98724	-54.12821	553.43774	-375.94000	61.70233	949.99309	-95.86476	-151.58534	970.15341	-177.25368	53.43716	921.15331	-347.61489	-147.04235	962.06693	-273.96912	-121.65730	1422.40997	-198.95991	-63.64402	1362.97425	-32.32031	-24.47745	1411.03305	-348.60562	3.61979	1348.59937	-171.38884	8.81237	1356.62929	-216.03291	-34.13230	1228.14084	9.94085	-111.79355	1035.49673	-57.81975	-123.61184	1043.90831	7.74445	-85.87057	976.42791	46.94822	-30.71471	812.54184	39.51335	-79.66298	812.83571	56.68696	17.04054	1276.91803	-416.14759	-52.19009	1073.98922	-390.40946	-26.31107	1090.33935	-464.75597	30.98270	1039.28753	-472.22299	98.81790	874.83526	-452.81816	69.08347	875.21680	-494.22653	-24.11548	859.51812	-111.16897	-25.17644	839.26467	-299.63243	-16.94854	864.24421	-127.87951	-9.12952	850.30334	-294.45284	
